<?xml version="1.0" encoding="UTF-8" standalone="no"?>
<svg
   xmlns:dc="http://purl.org/dc/elements/1.1/"
   xmlns:cc="http://creativecommons.org/ns#"
   xmlns:rdf="http://www.w3.org/1999/02/22-rdf-syntax-ns#"
   xmlns:svg="http://www.w3.org/2000/svg"
   xmlns="http://www.w3.org/2000/svg"
   xmlns:sodipodi="http://sodipodi.sourceforge.net/DTD/sodipodi-0.dtd"
   xmlns:inkscape="http://www.inkscape.org/namespaces/inkscape"
   width="210mm"
   height="297mm"
   viewBox="0 0 210 297"
   version="1.1"
   id="svg8"
   inkscape:version="1.0.2 (e86c870879, 2021-01-15)"
   sodipodi:docname="udemy_dell_logo.svg">
  <defs
     id="defs2" />
  <sodipodi:namedview
     id="base"
     pagecolor="#ffffff"
     bordercolor="#666666"
     borderopacity="1.0"
     inkscape:pageopacity="0.0"
     inkscape:pageshadow="2"
     inkscape:zoom="0.35"
     inkscape:cx="442.85714"
     inkscape:cy="717.74755"
     inkscape:document-units="mm"
     inkscape:current-layer="layer1"
     inkscape:document-rotation="0"
     showgrid="false"
     inkscape:window-width="1366"
     inkscape:window-height="710"
     inkscape:window-x="0"
     inkscape:window-y="27"
     inkscape:window-maximized="1" />
  <metadata
     id="metadata5">
    <rdf:RDF>
      <cc:Work
         rdf:about="">
        <dc:format>image/svg+xml</dc:format>
        <dc:type
           rdf:resource="http://purl.org/dc/dcmitype/StillImage" />
        <dc:title></dc:title>
      </cc:Work>
    </rdf:RDF>
  </metadata>
  <g
     inkscape:label="Layer 1"
     inkscape:groupmode="layer"
     id="layer1">
    <path
       id="path12"
       style="opacity:1;fill:#000080;fill-rule:evenodd;stroke:#ffffff;stroke-width:0.999999;stroke-linejoin:round"
       d="M 392.70508 216.16406 A 329.07305 329.07305 0 0 0 63.632812 545.23828 A 329.07305 329.07305 0 0 0 392.70508 874.31055 A 329.07305 329.07305 0 0 0 721.77734 545.23828 A 329.07305 329.07305 0 0 0 392.70508 216.16406 z M 392.08594 243.83008 A 301.84216 301.40758 0 0 1 392.08789 243.83008 A 301.84216 301.40758 0 0 1 392.70508 243.83008 A 301.84216 301.40758 0 0 1 694.54688 545.23828 A 301.84216 301.40758 0 0 1 392.70508 846.64453 A 301.84216 301.40758 0 0 1 90.863281 545.23828 A 301.84216 301.40758 0 0 1 392.08594 243.83008 z M 345.01758 451.41602 L 260.40039 505.23047 L 345.51172 639.05859 L 431.74219 584.21875 L 422.05078 568.98047 L 353.92773 612.30469 L 323.08789 563.81055 L 386.81641 523.28125 L 377.12695 508.04297 L 313.39453 548.57227 L 288.19922 508.95312 L 354.70898 466.65625 L 345.01758 451.41602 z M 132.82422 480.45898 L 132.82422 639.05859 L 176.91016 639.05859 C 207.50382 639.05859 230.02369 632.6503 244.4707 619.83203 C 258.91771 607.01391 266.14063 586.93565 266.14062 559.59961 C 266.14062 532.40523 258.95236 512.43483 244.57617 499.6875 C 230.19997 486.86931 207.64546 480.45898 176.91016 480.45898 L 132.82422 480.45898 z M 432.69336 480.45898 L 432.69336 639.05859 L 531.37891 639.05859 L 531.37891 620.99805 L 454.15039 620.99805 L 454.15039 480.45898 L 432.69336 480.45898 z M 553.90039 480.45898 L 553.90039 639.05859 L 652.58594 639.05859 L 652.58594 620.99805 L 575.35742 620.99805 L 575.35742 480.45898 L 553.90039 480.45898 z M 154.28125 498.09375 L 180.20117 498.09375 C 202.08415 498.09375 218.08974 503.05223 228.2168 512.9668 C 238.41469 522.81061 243.51563 538.35402 243.51562 559.59961 C 243.51562 580.98686 238.41469 596.63816 228.2168 606.55273 C 218.08974 616.46742 202.08415 621.42383 180.20117 621.42383 L 154.28125 621.42383 L 154.28125 498.09375 z "
       transform="scale(0.26458333)" />
  </g>
</svg>
